<svg version="1.1" id="Layer_1" xmlns="http://www.w3.org/2000/svg" xmlns:xlink="http://www.w3.org/1999/xlink" x="0px" y="0px"
	 width="100%" viewBox="0 0 640 283" enable-background="new 0 0 640 283" xml:space="preserve">
<path fill="#000000" opacity="1.000000" stroke="none" 
	d="
M641.000000,209.000000 
	C641.000000,233.974960 641.000000,258.949921 641.000000,284.000000 
	C520.645813,284.000000 400.291565,284.000000 279.133698,283.723267 
	C285.922089,276.770660 283.958893,267.801697 283.968475,259.388489 
	C284.027679,207.421127 283.999695,155.453674 283.999969,103.486259 
	C284.000031,93.599884 279.468689,89.001663 269.713409,88.998535 
	C258.054047,88.994789 246.394699,88.997482 234.735352,89.001083 
	C226.515549,89.003616 222.005554,93.471840 222.004654,101.662834 
	C221.998291,158.793686 221.983459,215.924576 222.077744,273.055267 
	C222.080750,274.882019 222.982864,276.846924 223.911591,278.496490 
	C225.023880,280.472015 226.615799,282.177551 228.000000,284.000000 
	C220.979050,284.000000 213.958099,284.000000 206.138702,283.729492 
	C209.220230,280.016327 210.036392,275.531494 210.030518,270.601105 
	C209.979538,227.789825 210.003067,184.978439 210.000000,142.167099 
	C209.999496,135.087372 204.931671,130.022858 197.777252,130.007843 
	C185.616882,129.982346 173.449829,130.243179 161.298325,129.913803 
	C153.178772,129.693726 147.905151,135.808014 147.931107,143.295532 
	C148.078339,185.773224 148.004410,228.251663 147.996460,270.729858 
	C147.995758,274.487183 148.467148,277.942749 151.827377,280.477051 
	C152.641083,281.090729 152.631180,282.796448 153.000000,284.000000 
	C146.312363,284.000000 139.624710,284.000000 132.144455,283.732025 
	C134.944092,280.035400 136.891861,275.695190 136.914658,270.875854 
	C137.051819,241.882141 137.081207,212.887054 136.939392,183.893433 
	C136.899094,175.655670 131.754959,170.997192 123.627579,170.995590 
	C111.129974,170.993149 98.632019,170.950607 86.135162,171.047440 
	C84.422096,171.060715 82.714493,171.777100 80.654999,172.096436 
	C78.591965,174.017532 76.878288,176.010132 75.091110,178.399780 
	C75.014397,179.873581 75.011208,180.950317 74.695984,182.312302 
	C74.297333,183.086105 74.135445,183.574570 74.134850,184.063248 
	C74.100471,212.362442 74.069733,240.661652 74.095947,268.960815 
	C74.096909,269.995972 74.668861,271.030609 74.985031,272.469971 
	C75.385529,274.915375 75.775703,276.956329 76.092682,279.371460 
	C76.679657,281.163788 77.339828,282.581909 78.000000,284.000000 
	C71.645599,284.000000 65.291206,284.000000 58.133816,283.726532 
	C59.286503,279.789124 63.072346,277.177917 63.040245,272.359253 
	C62.931709,256.065521 63.113003,239.769409 62.940216,223.476791 
	C62.875736,217.396515 58.964867,212.752472 52.807339,212.079971 
	C45.131638,211.241653 37.354195,211.108627 29.620155,211.099136 
	C22.887091,211.090881 16.109007,211.325317 9.440242,212.163773 
	C6.512334,212.531891 3.806607,214.667130 0.999999,216.000000 
	C1.000000,168.979111 1.000000,121.958214 1.231097,74.072037 
	C4.570229,77.385719 11.504147,74.200615 14.155902,80.803429 
	C16.045483,85.508423 17.621140,88.819565 14.403002,93.342850 
	C12.177805,96.470490 11.942100,99.970612 15.390888,102.995796 
	C18.388449,105.625168 20.687639,109.316780 24.049059,111.177727 
	C26.558014,112.566734 30.346521,112.269218 33.412064,111.774216 
	C35.033504,111.512398 36.327888,109.225143 37.742958,107.877983 
	C39.121822,108.650879 40.234020,109.334717 41.397556,109.915749 
	C45.754200,112.091316 50.492805,113.505432 50.284218,120.152924 
	C50.193085,123.057144 53.171650,125.073265 56.649311,125.013039 
	C60.148129,124.952446 63.648811,125.004356 67.148666,124.998093 
	C73.871086,124.986046 75.052788,123.965324 75.999886,117.373276 
	C76.771156,112.005043 84.890587,108.194160 89.510063,111.032227 
	C95.262352,114.566254 100.556290,113.931732 105.352989,109.141838 
	C107.120735,107.376610 108.805527,105.512352 110.698120,103.891762 
	C113.713966,101.309357 114.147751,97.710815 112.267830,95.042389 
	C109.456413,91.051788 109.358467,87.861938 110.636826,83.122375 
	C111.849373,78.626823 113.395164,76.649529 117.766541,75.934883 
	C123.517914,74.994629 124.982124,72.964073 125.000046,67.214935 
	C125.009399,64.215080 125.016449,61.215084 124.998230,58.215313 
	C124.968277,53.281265 122.780113,50.813660 117.907440,49.970592 
	C116.012627,49.642757 113.936020,49.429234 112.353706,48.478668 
	C110.546684,47.393108 109.880058,36.693356 110.848206,34.577518 
	C112.397217,31.192204 114.921043,27.627773 111.733597,23.995440 
	C109.119919,21.016970 106.252121,18.171827 103.104584,15.785004 
	C101.207054,14.346072 98.323357,12.813210 96.303352,13.253227 
	C93.182945,13.932942 90.422707,16.266079 87.628304,17.831541 
	C85.085297,16.545319 82.635864,15.284743 80.165222,14.067195 
	C79.139442,13.561687 77.438293,13.408569 77.124199,12.648767 
	C75.552658,8.847201 74.339294,4.897572 73.000000,1.000000 
	C262.215820,1.000000 451.431641,1.000000 641.000000,1.000000 
	C641.000000,46.353619 641.000000,91.708153 640.532043,137.533585 
	C635.902283,138.004364 631.723022,137.785431 627.587708,138.116531 
	C626.028809,138.241379 624.571716,139.639511 622.532349,140.748611 
	C618.451782,136.626144 612.147705,137.353897 606.302795,138.454605 
	C597.824829,140.051147 595.998840,142.960281 595.998352,151.641312 
	C595.997559,166.290787 595.841431,180.942490 596.051636,195.588959 
	C596.198914,205.853561 594.638245,203.994263 603.883667,207.240707 
	C610.502502,209.564819 617.532898,210.430679 622.580811,206.399261 
	C624.647095,207.470367 626.046692,208.759155 627.524902,208.856796 
	C632.000244,209.152344 636.506042,208.986221 641.000000,209.000000 
M220.977783,140.051544 
	C220.977783,126.271385 220.977783,112.491226 220.977783,98.711067 
	C220.706207,98.713470 220.434647,98.715874 220.163071,98.718277 
	C220.163071,112.805405 220.163071,126.892532 220.033035,141.911484 
	C220.033035,185.361526 220.033035,228.811554 220.033035,272.261597 
	C221.000000,269.824829 221.002777,267.382385 220.999603,264.939941 
	C220.945816,223.619873 220.891281,182.299789 220.977783,140.051544 
M539.006165,155.011505 
	C539.006165,172.446213 539.006165,189.880936 539.006165,207.315643 
	C539.365356,207.315964 539.724487,207.316299 540.083679,207.316620 
	C540.083679,189.247116 540.083679,171.177628 540.873779,153.455322 
	C540.873779,171.870331 540.873779,190.285324 540.873779,208.572205 
	C547.077881,208.572205 552.469788,208.572205 558.002136,208.572205 
	C558.002136,192.696030 557.920410,177.206070 558.030273,161.717453 
	C558.106201,151.006943 555.994446,151.952148 567.846130,152.072983 
	C568.120361,152.075760 568.391785,152.349213 569.098328,152.730560 
	C569.098328,171.225662 569.098328,189.958405 569.098328,208.671906 
	C574.936890,208.671906 580.335938,208.671906 585.999634,208.671906 
	C585.999634,188.751297 586.098328,169.116165 585.934143,149.483231 
	C585.889954,144.202347 582.711304,140.486801 577.733826,139.098770 
	C569.943298,136.926346 562.221802,136.987991 556.738464,140.966858 
	C550.618652,139.815414 545.833923,138.545029 540.973511,138.097031 
	C535.263672,137.570724 529.609985,139.748306 523.695068,138.175049 
	C520.161316,137.235168 516.173584,138.002625 512.027710,138.002625 
	C512.027710,157.930023 512.027710,177.381561 512.027710,196.833084 
	C512.027710,209.060928 512.030090,208.886002 524.443726,209.054153 
	C528.789307,209.113037 530.155029,207.888260 530.085449,203.429962 
	C529.825806,186.787872 529.981750,170.139313 529.981750,154.088440 
	C533.189209,154.088440 536.104980,154.088440 539.006165,155.011505 
M360.480804,118.001984 
	C356.820160,118.003349 353.088867,117.543930 349.512085,118.092331 
	C338.710327,119.748482 335.032745,119.782143 335.009857,132.830246 
	C334.972198,154.294891 334.992615,175.759644 335.003479,197.224350 
	C335.007568,205.272125 337.227264,207.553055 345.402130,207.999069 
	C345.900146,208.026260 346.399994,208.030975 346.898926,208.030136 
	C356.579376,208.013611 366.264709,208.144745 375.935486,207.829468 
	C377.557770,207.776581 379.903564,206.126740 380.549225,204.626831 
	C382.122009,200.973312 383.775543,196.988892 383.838287,193.112503 
	C384.158661,173.317184 384.177948,153.511169 383.900299,133.714539 
	C383.767120,124.219292 379.661926,119.589752 370.937134,118.116585 
	C367.861603,117.597282 364.628174,118.012970 360.480804,118.001984 
M415.948853,207.436203 
	C420.725891,207.624420 425.503296,207.970901 430.279907,207.961197 
	C436.385529,207.948792 439.975739,204.298645 439.988739,198.288193 
	C440.022919,182.475113 440.065613,166.661331 439.929810,150.849335 
	C439.908081,148.320084 439.782532,145.135696 438.335052,143.390289 
	C432.618561,136.497314 417.582764,135.945480 412.227997,141.777100 
	C412.043854,140.450699 411.881805,139.283554 411.754608,138.367432 
	C405.896912,138.367432 400.495239,138.367432 395.344299,138.367432 
	C395.344299,168.439117 395.344299,198.146500 395.344299,227.637817 
	C401.427429,227.637817 407.161499,227.637817 412.997772,227.637817 
	C412.997772,221.624680 412.883209,215.966965 413.095245,210.321518 
	C413.137238,209.204010 414.434052,208.133636 415.948853,207.436203 
M156.495468,121.063576 
	C159.983932,119.104065 163.548080,117.266632 166.945374,115.160095 
	C174.444687,110.510048 181.852493,105.712692 189.312180,100.998459 
	C193.876404,98.114037 198.702866,95.582451 202.986984,92.332718 
	C208.312973,88.292702 213.143723,83.606483 218.291672,79.323540 
	C225.351364,73.450104 232.784607,67.994667 239.540512,61.796322 
	C245.521820,56.308655 250.795807,50.050022 256.757935,43.733540 
	C257.210907,49.749344 257.832031,54.975277 257.911377,60.209427 
	C257.957428,63.249531 258.843201,64.904747 261.961731,64.988708 
	C265.299713,65.078575 265.061890,62.665421 264.984344,60.491653 
	C264.683258,52.050858 264.351654,43.611000 263.987335,35.172695 
	C263.853149,32.064022 262.008118,30.957718 259.053864,30.975216 
	C249.485733,31.031883 239.917038,30.996380 230.478668,30.996380 
	C229.788193,38.473412 232.368484,40.159157 239.335373,38.866482 
	C243.318039,38.127522 247.439316,38.135567 251.498184,37.807278 
	C250.422592,39.710938 249.200836,40.509853 248.203705,41.528629 
	C240.629288,49.267551 233.235153,57.189259 225.485596,64.747177 
	C222.510910,67.648293 218.685577,69.658890 215.376175,72.239792 
	C211.316879,75.405502 207.511368,78.905731 203.370071,81.954239 
	C200.246323,84.253708 196.399887,85.650063 193.510300,88.175240 
	C181.445023,98.718941 167.580978,106.470177 153.571014,113.873108 
	C142.654160,119.641624 131.391510,124.891846 119.905487,129.414978 
	C103.035583,136.058258 86.059319,142.625458 68.694748,147.758011 
	C54.473553,151.961426 39.594650,153.913177 25.075329,157.166656 
	C23.177866,157.591812 20.390842,159.712311 20.257351,161.243057 
	C19.908302,165.245575 23.689196,164.273407 25.734127,163.893707 
	C38.930923,161.443375 52.100979,158.826431 65.221123,155.992432 
	C77.366295,153.369003 89.229469,149.783936 100.779152,145.106720 
	C108.981247,141.785172 117.447762,139.121353 125.698235,135.911972 
	C128.728653,134.733170 131.402130,132.668228 134.369598,131.289871 
	C141.507614,127.974312 148.723221,124.825714 156.495468,121.063576 
M469.070404,152.800583 
	C471.909058,152.392975 474.747681,151.985352 477.774292,151.550751 
	C477.774292,147.174805 477.774292,142.773880 477.774292,137.954285 
	C474.819092,137.954285 472.081024,137.954285 468.926331,137.954285 
	C468.926331,133.806931 468.926331,130.060272 468.926331,126.266281 
	C463.095093,126.266281 457.697449,126.266281 451.883606,126.266281 
	C451.883606,130.265839 451.883606,134.019348 451.883606,137.847397 
	C449.394348,137.976089 447.311462,138.083771 445.302368,138.187637 
	C445.302368,142.977875 445.302368,147.382553 445.302368,151.803314 
	C447.673676,151.970810 449.744720,152.117096 452.001801,152.276520 
	C452.001801,166.765427 451.921417,180.896591 452.045166,195.025986 
	C452.088745,200.005844 452.759369,206.093338 457.758881,207.545670 
	C464.023804,209.365601 471.008057,208.709183 477.614410,209.117447 
	C477.614410,203.572250 477.614410,198.849609 477.614410,193.863678 
	C474.614197,193.863678 472.002289,193.863678 469.005646,193.863678 
	C469.005646,180.304947 469.005646,167.029404 469.070404,152.800583 
M484.049469,178.500107 
	C484.038147,184.322723 484.019226,190.145325 484.017059,195.967941 
	C484.012146,209.117294 484.016846,208.952866 497.040619,209.058945 
	C501.138306,209.092300 502.073395,207.679016 502.043274,203.843628 
	C501.881165,183.215973 501.972961,162.586349 501.951538,141.957428 
	C501.950226,140.698563 501.728882,139.439926 501.624817,138.339386 
	C495.638275,138.339386 490.063080,138.339386 484.049500,138.339386 
	C484.049500,151.616837 484.049500,164.558441 484.049469,178.500107 
M500.814270,128.323288 
	C501.361542,123.280388 501.908783,118.237488 502.436188,113.377548 
	C495.554535,113.377548 489.814636,113.377548 483.991486,113.377548 
	C483.991486,115.761459 483.966705,117.760231 483.995697,119.758217 
	C484.131989,129.148438 482.235016,129.219147 492.950043,128.688141 
	C495.277985,128.572754 497.614960,128.639099 500.814270,128.323288 
M286.000000,246.500000 
	C286.000000,198.589798 286.000000,150.679581 286.000000,102.769379 
	C285.755798,102.769806 285.511597,102.770233 285.267395,102.770660 
	C285.267395,158.589935 285.267395,214.409225 285.267395,270.228516 
	C285.511597,270.232574 285.755798,270.236664 286.000000,270.240723 
	C286.000000,262.660461 286.000000,255.080215 286.000000,246.500000 
M146.994370,143.053162 
	C146.912170,142.254211 146.829971,141.455246 146.747787,140.656296 
	C146.595078,140.663773 146.442383,140.671234 146.289673,140.678711 
	C146.289673,184.825653 146.289673,228.972595 146.289673,273.119537 
	C146.524750,273.119659 146.759811,273.119781 146.994888,273.119904 
	C146.994888,230.060364 146.994888,187.000824 146.994370,143.053162 
M212.000137,157.501099 
	C212.000137,151.555237 212.000137,145.609375 212.000137,139.663513 
	C211.751999,139.668121 211.503845,139.672729 211.255707,139.677338 
	C211.255707,183.565735 211.255707,227.454132 211.255707,271.342529 
	C211.503845,271.343201 211.751999,271.343872 212.000137,271.344543 
	C212.000137,233.729919 212.000137,196.115295 212.000137,157.501099 
M393.996429,182.500000 
	C393.996429,168.283127 393.996429,154.066254 393.996429,139.849380 
	C393.759613,139.853424 393.522827,139.857468 393.286011,139.861496 
	C393.286011,168.691116 393.286011,197.520737 393.286011,226.350357 
	C393.522827,226.351181 393.759613,226.352005 393.996429,226.352829 
	C393.996429,212.068558 393.996429,197.784271 393.996429,182.500000 
M560.019714,159.728119 
	C560.019714,158.045776 560.019714,156.363434 560.019714,154.681076 
	C559.754700,154.686523 559.489624,154.691956 559.224609,154.697388 
	C559.224609,172.243744 559.224609,189.790100 559.224609,207.336456 
	C559.488037,207.338181 559.751526,207.339920 560.014954,207.341644 
	C560.014954,191.786087 560.014954,176.230515 560.019714,159.728119 
M594.998047,160.513931 
	C594.998047,156.295242 594.998047,152.076538 594.998047,147.857849 
	C594.760254,147.872116 594.522461,147.886383 594.284668,147.900665 
	C594.284668,165.036163 594.284668,182.171661 594.284668,199.307159 
	C594.522461,199.307541 594.760254,199.307922 594.998047,199.308289 
	C594.998047,186.708557 594.998047,174.108810 594.998047,160.513931 
M64.000000,251.499939 
	C64.000000,258.761658 64.000000,266.023376 64.000000,273.285065 
	C64.249123,273.281647 64.498253,273.278229 64.747375,273.274811 
	C64.747375,256.424347 64.747375,239.573898 64.747375,222.723434 
	C64.498253,222.720688 64.249123,222.717941 64.000000,222.715195 
	C64.000000,231.976791 64.000000,241.238373 64.000000,251.499939 
M86.834579,169.993408 
	C100.638748,169.993408 114.442909,169.993408 128.247086,169.993408 
	C128.243820,169.740540 128.240570,169.487656 128.237305,169.234787 
	C113.037346,169.234787 97.837387,169.234787 82.637421,169.234787 
	C82.631607,169.414124 82.625793,169.593475 82.619980,169.772812 
	C83.722855,169.846725 84.825722,169.920624 86.834579,169.993408 
M450.000122,167.513885 
	C450.000122,175.795395 450.000122,184.076920 450.000122,192.358429 
	C450.987061,179.779373 451.010193,167.201492 450.916962,154.624481 
	C450.912445,154.013123 449.886780,153.409332 450.000122,153.534470 
	C450.000122,157.717941 450.000122,162.119171 450.000122,167.513885 
M268.196442,88.002922 
	C269.782379,88.002922 271.368286,88.002922 272.954224,88.002922 
	C272.940857,87.785797 272.927490,87.568680 272.914124,87.351555 
	C259.591095,87.351555 246.268051,87.351555 232.945023,87.351555 
	C232.946487,87.568680 232.947952,87.785797 232.949432,88.002922 
	C244.388519,88.002922 255.827606,88.002922 268.196442,88.002922 
M186.427017,128.002136 
	C176.851288,128.002136 167.275558,128.002136 157.699844,128.002136 
	C157.703568,128.249115 157.707306,128.496094 157.711044,128.743073 
	C170.233337,128.743073 182.755615,128.743073 195.277908,128.743073 
	C195.279617,128.496094 195.281326,128.249115 195.283035,128.002136 
	C192.654434,128.002136 190.025848,128.002136 186.427017,128.002136 
M470.000458,158.939240 
	C470.000458,170.033096 470.000458,181.126968 470.000458,192.220825 
	C470.242035,192.216232 470.483643,192.211639 470.725220,192.207031 
	C470.725220,180.030838 470.725220,167.854645 470.725220,155.678452 
	C470.563232,155.672607 470.401276,155.666779 470.239288,155.660934 
	C470.159851,156.460464 470.080414,157.259995 470.000458,158.939240 
M531.940308,167.393677 
	C531.769653,167.209671 531.599060,167.025650 531.428406,166.841629 
	C531.332642,166.977859 531.153137,167.114014 531.153015,167.250366 
	C531.140076,178.541061 531.141113,189.831772 531.141113,201.122482 
	C531.424866,201.120667 531.708679,201.118851 531.992432,201.117035 
	C531.992432,190.154312 531.992432,179.191574 531.940308,167.393677 
M333.009186,146.515045 
	C333.009186,153.398270 333.009186,160.281509 333.009186,167.164734 
	C333.249023,167.156647 333.488831,167.148575 333.728668,167.140488 
	C333.728668,155.993958 333.728668,144.847412 333.728668,133.700882 
	C333.488831,133.697556 333.249023,133.694244 333.009186,133.690918 
	C333.009186,137.634964 333.009186,141.579025 333.009186,146.515045 
z"/>
<path fill="#FDAECB" opacity="1.000000" stroke="none" 
	d="
M228.468658,284.000000 
	C226.615799,282.177551 225.023880,280.472015 223.911591,278.496490 
	C222.982864,276.846924 222.080750,274.882019 222.077744,273.055267 
	C221.983459,215.924576 221.998291,158.793686 222.004654,101.662834 
	C222.005554,93.471840 226.515549,89.003616 234.735352,89.001083 
	C246.394699,88.997482 258.054047,88.994789 269.713409,88.998535 
	C279.468689,89.001663 284.000031,93.599884 283.999969,103.486259 
	C283.999695,155.453674 284.027679,207.421127 283.968475,259.388489 
	C283.958893,267.801697 285.922089,276.770660 278.665039,283.723267 
	C262.312439,284.000000 245.624878,284.000000 228.468658,284.000000 
M232.023834,97.368774 
	C232.023834,97.368774 232.020981,97.834785 231.514099,97.998192 
	C231.345627,98.054138 231.177170,98.110092 230.559021,98.327278 
	C230.281311,98.525452 230.109863,98.792061 229.198685,99.360466 
	C229.131592,101.016090 229.006134,102.671700 229.005829,104.327332 
	C228.996048,159.506119 228.997971,214.684891 229.000305,269.863678 
	C229.000351,271.192841 229.006378,272.523071 229.086563,273.848175 
	C229.091019,273.921600 229.803757,273.952148 230.500000,274.022034 
	C230.500000,274.022034 230.813202,274.002838 230.968323,274.470398 
	C230.968323,274.470398 231.103195,274.944183 231.065659,275.515228 
	C231.076111,275.706024 231.086578,275.896820 231.455292,276.873291 
	C244.802017,276.915802 258.148773,276.974976 271.495392,276.959229 
	C272.295959,276.958282 273.095795,276.358398 273.993988,275.618561 
	C273.993988,275.618561 273.960693,275.189941 274.482422,275.040283 
	C274.660400,275.007568 274.838348,274.974854 275.480927,274.873627 
	C275.785278,274.708923 275.947510,274.453796 276.761139,273.703156 
	C276.840607,251.071854 276.963440,228.440613 276.989380,205.809250 
	C277.028503,171.682434 277.004211,137.555557 276.990997,103.428696 
	C276.990082,101.046997 277.749481,98.185005 273.982880,97.373001 
	C273.982880,97.373001 273.915070,96.949310 273.575043,96.150284 
	C260.400085,96.100380 247.225128,96.037354 234.050171,96.039368 
	C233.392914,96.039467 232.735748,96.604172 232.023834,97.368774 
z"/>
<path fill="#FDADC9" opacity="1.000000" stroke="none" 
	d="
M72.531418,1.000000 
	C74.339294,4.897572 75.552658,8.847201 77.124199,12.648767 
	C77.438293,13.408569 79.139442,13.561687 80.165222,14.067195 
	C82.635864,15.284743 85.085297,16.545319 87.628304,17.831541 
	C90.422707,16.266079 93.182945,13.932942 96.303352,13.253227 
	C98.323357,12.813210 101.207054,14.346072 103.104584,15.785004 
	C106.252121,18.171827 109.119919,21.016970 111.733597,23.995440 
	C114.921043,27.627773 112.397217,31.192204 110.848206,34.577518 
	C109.880058,36.693356 110.546684,47.393108 112.353706,48.478668 
	C113.936020,49.429234 116.012627,49.642757 117.907440,49.970592 
	C122.780113,50.813660 124.968277,53.281265 124.998230,58.215313 
	C125.016449,61.215084 125.009399,64.215080 125.000046,67.214935 
	C124.982124,72.964073 123.517914,74.994629 117.766541,75.934883 
	C113.395164,76.649529 111.849373,78.626823 110.636826,83.122375 
	C109.358467,87.861938 109.456413,91.051788 112.267830,95.042389 
	C114.147751,97.710815 113.713966,101.309357 110.698120,103.891762 
	C108.805527,105.512352 107.120735,107.376610 105.352989,109.141838 
	C100.556290,113.931732 95.262352,114.566254 89.510063,111.032227 
	C84.890587,108.194160 76.771156,112.005043 75.999886,117.373276 
	C75.052788,123.965324 73.871086,124.986046 67.148666,124.998093 
	C63.648811,125.004356 60.148129,124.952446 56.649311,125.013039 
	C53.171650,125.073265 50.193085,123.057144 50.284218,120.152924 
	C50.492805,113.505432 45.754200,112.091316 41.397556,109.915749 
	C40.234020,109.334717 39.121822,108.650879 37.742958,107.877983 
	C36.327888,109.225143 35.033504,111.512398 33.412064,111.774216 
	C30.346521,112.269218 26.558014,112.566734 24.049059,111.177727 
	C20.687639,109.316780 18.388449,105.625168 15.390888,102.995796 
	C11.942100,99.970612 12.177805,96.470490 14.403002,93.342850 
	C17.621140,88.819565 16.045483,85.508423 14.155902,80.803429 
	C11.504147,74.200615 4.570229,77.385719 1.231097,73.603378 
	C1.000000,66.979050 1.000000,59.958103 1.231245,52.865204 
	C3.002372,51.876614 4.583662,50.114918 6.075045,50.187996 
	C12.938694,50.524315 14.298390,45.439457 16.028944,40.702354 
	C16.379789,39.741970 16.345432,38.287403 15.851041,37.427071 
	C11.506281,29.866377 11.877847,26.625015 18.066521,20.435596 
	C19.238115,19.263861 20.467461,18.145792 21.586027,16.925821 
	C26.330521,11.751223 27.883993,11.534351 33.832699,15.320845 
	C38.059662,18.011408 48.136547,14.715585 49.421684,10.042766 
	C50.229374,7.105953 50.492542,4.019384 51.000000,1.000000 
	C58.020947,1.000000 65.041893,1.000000 72.531418,1.000000 
M116.538643,57.011349 
	C114.624634,57.171654 112.710632,57.331963 109.499725,57.600891 
	C107.764191,53.632725 105.738953,48.932362 103.656960,44.257278 
	C100.000549,36.046852 100.123634,34.540497 105.226357,30.101187 
	C104.272942,28.697851 103.421371,27.134314 102.278419,25.825165 
	C99.713921,22.887743 97.375137,20.149195 92.855095,23.759192 
	C91.223976,25.061911 87.555893,24.605986 85.106415,23.920168 
	C80.615440,22.662760 75.932091,21.241392 72.142807,18.682974 
	C70.207787,17.376509 65.738174,15.074142 68.926216,10.715048 
	C69.304337,10.198035 68.977615,9.165531 68.977615,8.124386 
	C65.061821,8.124386 61.237522,7.476586 57.891308,8.458325 
	C56.636055,8.826601 56.671555,13.052440 55.764893,15.381887 
	C55.318684,16.528311 54.239754,17.683657 53.144676,18.271708 
	C50.481003,19.702085 47.131458,20.231352 44.973778,22.152113 
	C39.986320,26.591925 35.250080,25.640875 29.952080,23.117691 
	C28.639036,22.492353 26.453995,23.063599 24.922485,23.696407 
	C23.121937,24.440378 21.596668,25.850580 20.360191,26.693583 
	C23.861147,33.913528 25.569979,38.633480 22.322201,46.147575 
	C19.045807,53.727867 14.524791,55.968018 8.176239,57.270134 
	C8.176239,61.440853 8.176239,65.078629 8.176239,67.603737 
	C12.287649,69.877937 16.316381,71.272552 19.141518,73.941299 
	C21.279535,75.960960 21.707937,79.699226 23.205019,82.508614 
	C25.874487,87.518074 25.741293,91.838547 21.143679,95.750153 
	C20.504122,96.294281 20.531464,98.560913 21.124599,99.440331 
	C22.947613,102.143250 25.195383,104.559677 27.148888,106.930679 
	C35.821503,100.015633 38.025894,99.622269 44.318886,103.629974 
	C46.170094,104.808914 48.792526,104.835945 50.535786,106.110146 
	C52.646740,107.653084 55.704353,109.955078 55.709850,111.935928 
	C55.725792,117.684532 58.503330,118.555923 63.139149,118.033615 
	C64.930626,117.831764 66.763878,118.000687 68.455185,118.000687 
	C69.031792,116.514282 69.966057,115.287796 69.872742,114.145233 
	C69.429955,108.723412 72.441757,106.491829 77.145126,105.336418 
	C79.330582,104.799553 81.613045,104.051285 83.441536,102.799805 
	C86.759911,100.528641 89.925323,100.421524 92.768684,103.040329 
	C96.224731,106.223450 98.464294,104.572495 100.781403,101.746819 
	C101.726967,100.593704 103.177422,99.764862 103.839226,98.496780 
	C104.383385,97.454155 104.684219,95.347351 104.090630,94.800858 
	C100.350990,91.357948 100.324821,87.856140 102.675140,83.596268 
	C104.303131,80.645576 105.289497,77.322212 106.398552,74.108772 
	C107.673752,70.413933 110.674599,69.466042 114.029526,69.016373 
	C115.271393,68.849915 116.537483,68.864120 118.239731,68.771637 
	C117.956772,64.621529 117.700569,60.863773 116.538643,57.011349 
z"/>
<path fill="#FDAECA" opacity="1.000000" stroke="none" 
	d="
M153.468658,284.000000 
	C152.631180,282.796448 152.641083,281.090729 151.827377,280.477051 
	C148.467148,277.942749 147.995758,274.487183 147.996460,270.729858 
	C148.004410,228.251663 148.078339,185.773224 147.931107,143.295532 
	C147.905151,135.808014 153.178772,129.693726 161.298325,129.913803 
	C173.449829,130.243179 185.616882,129.982346 197.777252,130.007843 
	C204.931671,130.022858 209.999496,135.087372 210.000000,142.167099 
	C210.003067,184.978439 209.979538,227.789825 210.030518,270.601105 
	C210.036392,275.531494 209.220230,280.016327 205.670120,283.729492 
	C188.645767,284.000000 171.291550,284.000000 153.468658,284.000000 
M155.176727,140.395721 
	C155.118439,141.055313 155.009308,141.714890 155.009186,142.374496 
	C155.000397,185.068893 154.993011,227.763321 155.040009,270.457672 
	C155.041260,271.593109 155.641296,272.727875 156.389786,273.932434 
	C156.389786,273.932434 156.822723,273.914520 157.039536,274.525452 
	C157.387482,274.757050 157.735428,274.988617 158.010437,275.595642 
	C158.010437,275.595642 158.124344,275.960785 158.357574,276.806396 
	C171.160965,276.872162 183.965454,276.861664 196.767151,277.045258 
	C201.211899,277.109009 203.048996,275.307068 203.041489,270.825653 
	C202.970184,228.238678 202.957626,185.651459 203.060181,143.064636 
	C203.070999,138.574127 201.475143,136.861069 196.958130,136.935211 
	C185.316360,137.126282 173.669174,136.968903 162.024750,137.043488 
	C160.728455,137.051788 159.435959,137.657990 158.047287,138.395569 
	C158.047287,138.395569 158.081070,138.813644 157.540161,138.980698 
	C157.361511,139.041458 157.182861,139.102219 156.554047,139.334732 
	C156.283371,139.533829 156.100433,139.794556 155.176727,140.395721 
z"/>
<path fill="#FEAECC" opacity="1.000000" stroke="none" 
	d="
M641.000000,208.531342 
	C636.506042,208.986221 632.000244,209.152344 627.524902,208.856796 
	C626.046692,208.759155 624.647095,207.470367 622.580811,206.399261 
	C617.532898,210.430679 610.502502,209.564819 603.883667,207.240707 
	C594.638245,203.994263 596.198914,205.853561 596.051636,195.588959 
	C595.841431,180.942490 595.997559,166.290787 595.998352,151.641312 
	C595.998840,142.960281 597.824829,140.051147 606.302795,138.454605 
	C612.147705,137.353897 618.451782,136.626144 622.532349,140.748611 
	C624.571716,139.639511 626.028809,138.241379 627.587708,138.116531 
	C631.723022,137.785431 635.902283,138.004364 640.532043,138.002243 
	C641.000000,161.354233 641.000000,184.708450 641.000000,208.531342 
M612.996399,155.674347 
	C612.996643,167.484360 613.114075,179.296143 612.934204,191.103409 
	C612.870422,195.287674 615.365967,195.150085 618.152466,194.990662 
	C620.763184,194.841309 624.092651,196.098709 624.040771,191.296448 
	C623.911438,179.321503 624.083679,167.342606 623.858398,155.370514 
	C623.836914,154.228439 621.521790,151.995941 620.871765,152.198227 
	C618.253845,153.012909 613.944824,149.031372 612.996399,155.674347 
z"/>
<path fill="#FCAECA" opacity="1.000000" stroke="none" 
	d="
M81.004356,172.167953 
	C82.714493,171.777100 84.422096,171.060715 86.135162,171.047440 
	C98.632019,170.950607 111.129974,170.993149 123.627579,170.995590 
	C131.754959,170.997192 136.899094,175.655670 136.939392,183.893433 
	C137.081207,212.887054 137.051819,241.882141 136.914658,270.875854 
	C136.891861,275.695190 134.944092,280.035400 131.675919,283.732025 
	C116.312439,284.000000 100.624878,284.000000 84.527336,283.621429 
	C84.411919,281.216461 84.706482,279.190063 85.464554,277.089966 
	C98.090111,277.009857 110.252357,277.034760 122.413963,276.956848 
	C123.910103,276.947266 125.402718,276.388275 126.949310,275.856140 
	C127.001656,275.628326 127.023056,275.161346 127.453873,275.073669 
	C128.266647,273.538574 128.978516,272.091980 128.981796,270.643707 
	C129.047119,241.843750 128.991013,213.043503 129.072098,184.243622 
	C129.084595,179.800766 127.321404,177.905914 122.829308,177.957535 
	C111.177437,178.091431 99.522812,177.971313 87.869919,178.047882 
	C86.518547,178.056732 85.171127,178.665665 83.448212,178.999359 
	C81.834267,179.565109 80.593994,180.127853 79.353714,180.690598 
	C79.919502,181.466568 80.485298,182.242538 81.026955,183.485458 
	C81.024513,213.291748 81.046196,242.631088 80.835762,272.189362 
	C81.107941,273.257446 81.612228,274.106567 82.447304,274.976929 
	C83.213570,275.057434 83.649048,275.116760 84.072632,275.390808 
	C84.060730,275.605530 84.149277,276.026703 84.089249,276.257568 
	C84.029221,276.488434 84.118607,276.957031 83.736763,276.978088 
	C80.958572,277.665222 78.562225,278.331238 76.165878,278.997253 
	C75.775703,276.956329 75.385529,274.915375 74.994881,271.997284 
	C74.998940,241.422440 75.003479,211.724747 75.008011,182.027069 
	C75.011208,180.950317 75.014397,179.873581 75.468086,178.396484 
	C79.870529,178.022644 81.179390,175.742737 81.004356,172.167953 
z"/>
<path fill="#FDAECA" opacity="1.000000" stroke="none" 
	d="
M0.999999,216.468658 
	C3.806607,214.667130 6.512334,212.531891 9.440242,212.163773 
	C16.109007,211.325317 22.887091,211.090881 29.620155,211.099136 
	C37.354195,211.108627 45.131638,211.241653 52.807339,212.079971 
	C58.964867,212.752472 62.875736,217.396515 62.940216,223.476791 
	C63.113003,239.769409 62.931709,256.065521 63.040245,272.359253 
	C63.072346,277.177917 59.286503,279.789124 57.665413,283.726532 
	C40.312439,284.000000 22.624876,284.000000 4.794321,283.704620 
	C3.434218,282.606171 2.217109,281.803070 1.000000,281.000000 
	C1.000000,259.645782 1.000000,238.291550 0.999999,216.468658 
M10.456383,276.871796 
	C23.813038,276.914185 37.169716,276.973572 50.526295,276.955688 
	C51.308392,276.954651 52.089653,276.329193 52.972755,275.602661 
	C52.972755,275.602661 52.921299,275.201385 53.468479,275.050720 
	C53.654030,275.013855 53.839584,274.976990 54.489506,274.870148 
	C54.792793,274.703735 54.953865,274.447754 55.765125,273.697388 
	C55.842796,257.384003 56.096031,241.068085 55.861755,224.759171 
	C55.809975,221.154617 53.728565,217.966171 49.109993,217.985565 
	C37.618195,218.033829 26.123749,217.870010 14.635295,218.071854 
	C10.524251,218.144089 7.948584,220.322708 7.971391,224.950775 
	C8.047722,240.439621 7.981762,255.929138 8.039767,271.418121 
	C8.044171,272.594147 8.593927,273.768158 9.454772,274.958710 
	C9.642970,274.953705 9.831168,274.948669 10.064982,274.909424 
	C10.064982,274.909424 10.109193,274.945404 10.070584,275.514679 
	C10.080406,275.704956 10.090229,275.895203 10.456383,276.871796 
z"/>
<path fill="#000000" opacity="1.000000" stroke="none" 
	d="
M50.531342,1.000000 
	C50.492542,4.019384 50.229374,7.105953 49.421684,10.042766 
	C48.136547,14.715585 38.059662,18.011408 33.832699,15.320845 
	C27.883993,11.534351 26.330521,11.751223 21.586027,16.925821 
	C20.467461,18.145792 19.238115,19.263861 18.066521,20.435596 
	C11.877847,26.625015 11.506281,29.866377 15.851041,37.427071 
	C16.345432,38.287403 16.379789,39.741970 16.028944,40.702354 
	C14.298390,45.439457 12.938694,50.524315 6.075045,50.187996 
	C4.583662,50.114918 3.002372,51.876614 1.231245,52.396626 
	C1.000000,35.073975 1.000000,18.147949 1.000000,1.000000 
	C17.353559,1.000000 33.708122,1.000000 50.531342,1.000000 
z"/>
<path fill="#F5AFC9" opacity="1.000000" stroke="none" 
	d="
M76.092682,279.371460 
	C78.562225,278.331238 80.958572,277.665222 83.963486,277.003662 
	C84.572060,277.008148 85.001045,277.163666 85.001053,277.163666 
	C84.706482,279.190063 84.411919,281.216461 84.058678,283.621429 
	C82.285645,284.000000 80.571281,284.000000 78.428467,284.000000 
	C77.339828,282.581909 76.679657,281.163788 76.092682,279.371460 
z"/>
<path fill="#000000" opacity="1.000000" stroke="none" 
	d="
M1.000000,281.500000 
	C2.217109,281.803070 3.434218,282.606171 4.325664,283.704620 
	C2.731102,283.736694 0.387769,285.085022 1.000000,281.500000 
z"/>
<path fill="#FEAECB" opacity="1.000000" stroke="none" 
	d="
M539.020752,154.088440 
	C536.104980,154.088440 533.189209,154.088440 529.981750,154.088440 
	C529.981750,170.139313 529.825806,186.787872 530.085449,203.429962 
	C530.155029,207.888260 528.789307,209.113037 524.443726,209.054153 
	C512.030090,208.886002 512.027710,209.060928 512.027710,196.833084 
	C512.027710,177.381561 512.027710,157.930023 512.027710,138.002625 
	C516.173584,138.002625 520.161316,137.235168 523.695068,138.175049 
	C529.609985,139.748306 535.263672,137.570724 540.973511,138.097031 
	C545.833923,138.545029 550.618652,139.815414 556.738464,140.966858 
	C562.221802,136.987991 569.943298,136.926346 577.733826,139.098770 
	C582.711304,140.486801 585.889954,144.202347 585.934143,149.483231 
	C586.098328,169.116165 585.999634,188.751297 585.999634,208.671906 
	C580.335938,208.671906 574.936890,208.671906 569.098328,208.671906 
	C569.098328,189.958405 569.098328,171.225662 569.098328,152.730560 
	C568.391785,152.349213 568.120361,152.075760 567.846130,152.072983 
	C555.994446,151.952148 558.106201,151.006943 558.030273,161.717453 
	C557.920410,177.206070 558.002136,192.696030 558.002136,208.572205 
	C552.469788,208.572205 547.077881,208.572205 540.873779,208.572205 
	C540.873779,190.285324 540.873779,171.870331 540.241577,153.369019 
	C539.413147,153.551285 539.216919,153.819855 539.020752,154.088440 
z"/>
<path fill="#FFAECC" opacity="1.000000" stroke="none" 
	d="
M360.973816,118.001877 
	C364.628174,118.012970 367.861603,117.597282 370.937134,118.116585 
	C379.661926,119.589752 383.767120,124.219292 383.900299,133.714539 
	C384.177948,153.511169 384.158661,173.317184 383.838287,193.112503 
	C383.775543,196.988892 382.122009,200.973312 380.549225,204.626831 
	C379.903564,206.126740 377.557770,207.776581 375.935486,207.829468 
	C366.264709,208.144745 356.579376,208.013611 346.898926,208.030136 
	C346.399994,208.030975 345.900146,208.026260 345.402130,207.999069 
	C337.227264,207.553055 335.007568,205.272125 335.003479,197.224350 
	C334.992615,175.759644 334.972198,154.294891 335.009857,132.830246 
	C335.032745,119.782143 338.710327,119.748482 349.512085,118.092331 
	C353.088867,117.543930 356.820160,118.003349 360.973816,118.001877 
M352.743469,193.917130 
	C357.027191,193.917130 361.310944,193.917130 365.793579,193.917130 
	C365.793579,173.195114 365.793579,152.809128 365.793579,131.996704 
	C362.488647,131.996704 359.358093,132.159836 356.252319,131.952179 
	C352.953613,131.731628 351.923798,133.053299 351.947021,136.290359 
	C352.082886,155.268051 352.052399,174.246902 352.743469,193.917130 
z"/>
<path fill="#FEAECC" opacity="1.000000" stroke="none" 
	d="
M415.550537,207.238861 
	C414.434052,208.133636 413.137238,209.204010 413.095245,210.321518 
	C412.883209,215.966965 412.997772,221.624680 412.997772,227.637817 
	C407.161499,227.637817 401.427429,227.637817 395.344299,227.637817 
	C395.344299,198.146500 395.344299,168.439117 395.344299,138.367432 
	C400.495239,138.367432 405.896912,138.367432 411.754608,138.367432 
	C411.881805,139.283554 412.043854,140.450699 412.227997,141.777100 
	C417.582764,135.945480 432.618561,136.497314 438.335052,143.390289 
	C439.782532,145.135696 439.908081,148.320084 439.929810,150.849335 
	C440.065613,166.661331 440.022919,182.475113 439.988739,198.288193 
	C439.975739,204.298645 436.385529,207.948792 430.279907,207.961197 
	C425.503296,207.970901 420.725891,207.624420 415.550537,207.238861 
M411.997955,183.463013 
	C411.998413,186.289825 411.962921,189.117203 412.007782,191.943314 
	C412.073364,196.072220 415.233734,194.950729 417.489075,194.942841 
	C419.736359,194.934982 422.968658,196.092224 422.982056,191.960754 
	C423.025024,178.718231 422.998077,165.475479 422.998077,152.000488 
	C421.130432,152.000488 419.822906,152.003662 418.515381,151.999924 
	C412.003601,151.981354 412.002319,151.980728 412.000580,158.527420 
	C411.998444,166.509018 411.998688,174.490601 411.997955,183.463013 
z"/>
<path fill="#FDAEC9" opacity="1.000000" stroke="none" 
	d="
M156.201492,121.336670 
	C148.723221,124.825714 141.507614,127.974312 134.369598,131.289871 
	C131.402130,132.668228 128.728653,134.733170 125.698235,135.911972 
	C117.447762,139.121353 108.981247,141.785172 100.779152,145.106720 
	C89.229469,149.783936 77.366295,153.369003 65.221123,155.992432 
	C52.100979,158.826431 38.930923,161.443375 25.734127,163.893707 
	C23.689196,164.273407 19.908302,165.245575 20.257351,161.243057 
	C20.390842,159.712311 23.177866,157.591812 25.075329,157.166656 
	C39.594650,153.913177 54.473553,151.961426 68.694748,147.758011 
	C86.059319,142.625458 103.035583,136.058258 119.905487,129.414978 
	C131.391510,124.891846 142.654160,119.641624 153.571014,113.873108 
	C167.580978,106.470177 181.445023,98.718941 193.510300,88.175240 
	C196.399887,85.650063 200.246323,84.253708 203.370071,81.954239 
	C207.511368,78.905731 211.316879,75.405502 215.376175,72.239792 
	C218.685577,69.658890 222.510910,67.648293 225.485596,64.747177 
	C233.235153,57.189259 240.629288,49.267551 248.203705,41.528629 
	C249.200836,40.509853 250.422592,39.710938 251.498184,37.807278 
	C247.439316,38.135567 243.318039,38.127522 239.335373,38.866482 
	C232.368484,40.159157 229.788193,38.473412 230.478668,30.996380 
	C239.917038,30.996380 249.485733,31.031883 259.053864,30.975216 
	C262.008118,30.957718 263.853149,32.064022 263.987335,35.172695 
	C264.351654,43.611000 264.683258,52.050858 264.984344,60.491653 
	C265.061890,62.665421 265.299713,65.078575 261.961731,64.988708 
	C258.843201,64.904747 257.957428,63.249531 257.911377,60.209427 
	C257.832031,54.975277 257.210907,49.749344 256.757935,43.733540 
	C250.795807,50.050022 245.521820,56.308655 239.540512,61.796322 
	C232.784607,67.994667 225.351364,73.450104 218.291672,79.323540 
	C213.143723,83.606483 208.312973,88.292702 202.986984,92.332718 
	C198.702866,95.582451 193.876404,98.114037 189.312180,100.998459 
	C181.852493,105.712692 174.444687,110.510048 166.945374,115.160095 
	C163.548080,117.266632 159.983932,119.104065 156.201492,121.336670 
z"/>
<path fill="#FEAFCC" opacity="1.000000" stroke="none" 
	d="
M469.038025,153.277222 
	C469.005646,167.029404 469.005646,180.304947 469.005646,193.863678 
	C472.002289,193.863678 474.614197,193.863678 477.614410,193.863678 
	C477.614410,198.849609 477.614410,203.572250 477.614410,209.117447 
	C471.008057,208.709183 464.023804,209.365601 457.758881,207.545670 
	C452.759369,206.093338 452.088745,200.005844 452.045166,195.025986 
	C451.921417,180.896591 452.001801,166.765427 452.001801,152.276520 
	C449.744720,152.117096 447.673676,151.970810 445.302368,151.803314 
	C445.302368,147.382553 445.302368,142.977875 445.302368,138.187637 
	C447.311462,138.083771 449.394348,137.976089 451.883606,137.847397 
	C451.883606,134.019348 451.883606,130.265839 451.883606,126.266281 
	C457.697449,126.266281 463.095093,126.266281 468.926331,126.266281 
	C468.926331,130.060272 468.926331,133.806931 468.926331,137.954285 
	C472.081024,137.954285 474.819092,137.954285 477.774292,137.954285 
	C477.774292,142.773880 477.774292,147.174805 477.774292,151.550751 
	C474.747681,151.985352 471.909058,152.392975 469.038025,153.277222 
z"/>
<path fill="#FCADCA" opacity="1.000000" stroke="none" 
	d="
M484.049500,178.000092 
	C484.049500,164.558441 484.049500,151.616837 484.049500,138.339386 
	C490.063080,138.339386 495.638275,138.339386 501.624817,138.339386 
	C501.728882,139.439926 501.950226,140.698563 501.951538,141.957428 
	C501.972961,162.586349 501.881165,183.215973 502.043274,203.843628 
	C502.073395,207.679016 501.138306,209.092300 497.040619,209.058945 
	C484.016846,208.952866 484.012146,209.117294 484.017059,195.967941 
	C484.019226,190.145325 484.038147,184.322723 484.049500,178.000092 
z"/>
<path fill="#F9ADC8" opacity="1.000000" stroke="none" 
	d="
M500.381012,128.472534 
	C497.614960,128.639099 495.277985,128.572754 492.950043,128.688141 
	C482.235016,129.219147 484.131989,129.148438 483.995697,119.758217 
	C483.966705,117.760231 483.991486,115.761459 483.991486,113.377548 
	C489.814636,113.377548 495.554535,113.377548 502.436188,113.377548 
	C501.908783,118.237488 501.361542,123.280388 500.381012,128.472534 
z"/>
<path fill="#808080" opacity="1.000000" stroke="none" 
	d="
M286.000000,246.999985 
	C286.000000,255.080215 286.000000,262.660461 286.000000,270.240723 
	C285.755798,270.236664 285.511597,270.232574 285.267395,270.228516 
	C285.267395,214.409225 285.267395,158.589935 285.267395,102.770660 
	C285.511597,102.770233 285.755798,102.769806 286.000000,102.769379 
	C286.000000,150.679581 286.000000,198.589798 286.000000,246.999985 
z"/>
<path fill="#AFAAAA" opacity="1.000000" stroke="none" 
	d="
M146.994629,143.497223 
	C146.994888,187.000824 146.994888,230.060364 146.994888,273.119904 
	C146.759811,273.119781 146.524750,273.119659 146.289673,273.119537 
	C146.289673,228.972595 146.289673,184.825653 146.289673,140.678711 
	C146.442383,140.671234 146.595078,140.663773 146.747787,140.656296 
	C146.829971,141.455246 146.912170,142.254211 146.994629,143.497223 
z"/>
<path fill="#BF81BF" opacity="1.000000" stroke="none" 
	d="
M212.000137,158.000885 
	C212.000137,196.115295 212.000137,233.729919 212.000137,271.344543 
	C211.751999,271.343872 211.503845,271.343201 211.255707,271.342529 
	C211.255707,227.454132 211.255707,183.565735 211.255707,139.677338 
	C211.503845,139.672729 211.751999,139.668121 212.000137,139.663513 
	C212.000137,145.609375 212.000137,151.555237 212.000137,158.000885 
z"/>
<path fill="#808080" opacity="1.000000" stroke="none" 
	d="
M220.836914,140.979721 
	C220.891281,182.299789 220.945816,223.619873 220.999603,264.939941 
	C221.002777,267.382385 221.000000,269.824829 220.033035,272.261597 
	C220.033035,228.811554 220.033035,185.361526 220.266479,141.446396 
	C220.499908,140.981308 220.836914,140.979721 220.836914,140.979721 
z"/>
<path fill="#F5AFC9" opacity="1.000000" stroke="none" 
	d="
M74.695984,182.312302 
	C75.003479,211.724747 74.998940,241.422440 74.984558,271.592804 
	C74.668861,271.030609 74.096909,269.995972 74.095947,268.960815 
	C74.069733,240.661652 74.100471,212.362442 74.134850,184.063248 
	C74.135445,183.574570 74.297333,183.086105 74.695984,182.312302 
z"/>
<path fill="#818181" opacity="1.000000" stroke="none" 
	d="
M393.996429,183.000000 
	C393.996429,197.784271 393.996429,212.068558 393.996429,226.352829 
	C393.759613,226.352005 393.522827,226.351181 393.286011,226.350357 
	C393.286011,197.520737 393.286011,168.691116 393.286011,139.861496 
	C393.522827,139.857468 393.759613,139.853424 393.996429,139.849380 
	C393.996429,154.066254 393.996429,168.283127 393.996429,183.000000 
z"/>
<path fill="#C082BD" opacity="1.000000" stroke="none" 
	d="
M539.013428,154.549957 
	C539.216919,153.819855 539.413147,153.551285 539.846558,153.195435 
	C540.083679,171.177628 540.083679,189.247116 540.083679,207.316620 
	C539.724487,207.316299 539.365356,207.315964 539.006165,207.315643 
	C539.006165,189.880936 539.006165,172.446213 539.013428,154.549957 
z"/>
<path fill="#FF83C1" opacity="1.000000" stroke="none" 
	d="
M560.017334,160.201538 
	C560.014954,176.230515 560.014954,191.786087 560.014954,207.341644 
	C559.751526,207.339920 559.488037,207.338181 559.224609,207.336456 
	C559.224609,189.790100 559.224609,172.243744 559.224609,154.697388 
	C559.489624,154.691956 559.754700,154.686523 560.019714,154.681076 
	C560.019714,156.363434 560.019714,158.045776 560.017334,160.201538 
z"/>
<path fill="#FF8282" opacity="1.000000" stroke="none" 
	d="
M594.998047,161.011505 
	C594.998047,174.108810 594.998047,186.708557 594.998047,199.308289 
	C594.760254,199.307922 594.522461,199.307541 594.284668,199.307159 
	C594.284668,182.171661 594.284668,165.036163 594.284668,147.900665 
	C594.522461,147.886383 594.760254,147.872116 594.998047,147.857849 
	C594.998047,152.076538 594.998047,156.295242 594.998047,161.011505 
z"/>
<path fill="#808080" opacity="1.000000" stroke="none" 
	d="
M64.000000,250.999954 
	C64.000000,241.238373 64.000000,231.976791 64.000000,222.715195 
	C64.249123,222.717941 64.498253,222.720688 64.747375,222.723434 
	C64.747375,239.573898 64.747375,256.424347 64.747375,273.274811 
	C64.498253,273.278229 64.249123,273.281647 64.000000,273.285065 
	C64.000000,266.023376 64.000000,258.761658 64.000000,250.999954 
z"/>
<path fill="#828282" opacity="1.000000" stroke="none" 
	d="
M86.381592,169.993973 
	C84.825722,169.920624 83.722855,169.846725 82.619980,169.772812 
	C82.625793,169.593475 82.631607,169.414124 82.637421,169.234787 
	C97.837387,169.234787 113.037346,169.234787 128.237305,169.234787 
	C128.240570,169.487656 128.243820,169.740540 128.247086,169.993408 
	C114.442909,169.993408 100.638748,169.993408 86.381592,169.993973 
z"/>
<path fill="#FF8083" opacity="1.000000" stroke="none" 
	d="
M220.907349,140.515625 
	C220.836914,140.979721 220.499908,140.981308 220.331482,140.980484 
	C220.163071,126.892532 220.163071,112.805405 220.163071,98.718277 
	C220.434647,98.715874 220.706207,98.713470 220.977783,98.711067 
	C220.977783,112.491226 220.977783,126.271385 220.907349,140.515625 
z"/>
<path fill="#FF81BE" opacity="1.000000" stroke="none" 
	d="
M450.000122,167.017151 
	C450.000122,162.119171 450.000122,157.717941 450.000122,153.534470 
	C449.886780,153.409332 450.912445,154.013123 450.916962,154.624481 
	C451.010193,167.201492 450.987061,179.779373 450.000122,192.358429 
	C450.000122,184.076920 450.000122,175.795395 450.000122,167.017151 
z"/>
<path fill="#A9A9A9" opacity="1.000000" stroke="none" 
	d="
M267.731567,88.002922 
	C255.827606,88.002922 244.388519,88.002922 232.949432,88.002922 
	C232.947952,87.785797 232.946487,87.568680 232.945023,87.351555 
	C246.268051,87.351555 259.591095,87.351555 272.914124,87.351555 
	C272.927490,87.568680 272.940857,87.785797 272.954224,88.002922 
	C271.368286,88.002922 269.782379,88.002922 267.731567,88.002922 
z"/>
<path fill="#ADA9AB" opacity="1.000000" stroke="none" 
	d="
M186.912140,128.002136 
	C190.025848,128.002136 192.654434,128.002136 195.283035,128.002136 
	C195.281326,128.249115 195.279617,128.496094 195.277908,128.743073 
	C182.755615,128.743073 170.233337,128.743073 157.711044,128.743073 
	C157.707306,128.496094 157.703568,128.249115 157.699844,128.002136 
	C167.275558,128.002136 176.851288,128.002136 186.912140,128.002136 
z"/>
<path fill="#ABAAAA" opacity="1.000000" stroke="none" 
	d="
M470.000732,158.499390 
	C470.080414,157.259995 470.159851,156.460464 470.239288,155.660934 
	C470.401276,155.666779 470.563232,155.672607 470.725220,155.678452 
	C470.725220,167.854645 470.725220,180.030838 470.725220,192.207031 
	C470.483643,192.211639 470.242035,192.216232 470.000458,192.220825 
	C470.000458,181.126968 470.000458,170.033096 470.000732,158.499390 
z"/>
<path fill="#FF0000" opacity="1.000000" stroke="none" 
	d="
M531.966370,167.811264 
	C531.992432,179.191574 531.992432,190.154312 531.992432,201.117035 
	C531.708679,201.118851 531.424866,201.120667 531.141113,201.122482 
	C531.141113,189.831772 531.140076,178.541061 531.153015,167.250366 
	C531.153137,167.114014 531.332642,166.977859 531.428406,166.841629 
	C531.599060,167.025650 531.769653,167.209671 531.966370,167.811264 
z"/>
<path fill="#828282" opacity="1.000000" stroke="none" 
	d="
M333.009186,146.019058 
	C333.009186,141.579025 333.009186,137.634964 333.009186,133.690918 
	C333.249023,133.694244 333.488831,133.697556 333.728668,133.700882 
	C333.728668,144.847412 333.728668,155.993958 333.728668,167.140488 
	C333.488831,167.148575 333.249023,167.156647 333.009186,167.164734 
	C333.009186,160.281509 333.009186,153.398270 333.009186,146.019058 
z"/>
<path fill="#F5AFC9" opacity="1.000000" stroke="none" 
	d="
M80.654999,172.096436 
	C81.179390,175.742737 79.870529,178.022644 75.541595,177.999451 
	C76.878288,176.010132 78.591965,174.017532 80.654999,172.096436 
z"/>
<path fill="#000000" opacity="1.000000" stroke="none" 
	d="
M273.968811,97.801727 
	C277.749481,98.185005 276.990082,101.046997 276.990997,103.428696 
	C277.004211,137.555557 277.028503,171.682434 276.989380,205.809250 
	C276.963440,228.440613 276.840607,251.071854 276.338928,273.430481 
	C275.916687,215.695312 275.916687,158.232788 275.916687,100.770271 
	C275.616547,100.770508 275.316406,100.770744 275.016266,100.770981 
	C275.016266,158.828049 275.016266,216.885101 275.016266,274.942169 
	C274.838348,274.974854 274.660400,275.007568 273.766235,275.032654 
	C259.067749,274.998077 245.085464,274.971130 231.103195,274.944183 
	C231.103195,274.944183 230.968323,274.470398 230.971329,273.775818 
	C230.985794,214.776169 230.997238,156.471100 231.008698,98.166039 
	C231.177170,98.110092 231.345627,98.054138 232.227325,97.993942 
	C246.616638,97.927048 260.292725,97.864388 273.968811,97.801727 
z"/>
<path fill="#000000" opacity="1.000000" stroke="none" 
	d="
M230.186798,274.002686 
	C229.803757,273.952148 229.091019,273.921600 229.086563,273.848175 
	C229.006378,272.523071 229.000351,271.192841 229.000305,269.863678 
	C228.997971,214.684891 228.996048,159.506119 229.005829,104.327332 
	C229.006134,102.671700 229.131592,101.016090 229.602020,99.700897 
	C230.003708,151.534103 229.995499,203.026886 230.008698,254.519653 
	C230.010376,261.014008 230.124680,267.508331 230.186798,274.002686 
z"/>
<path fill="#ABAAAA" opacity="1.000000" stroke="none" 
	d="
M230.343399,274.012360 
	C230.124680,267.508331 230.010376,261.014008 230.008698,254.519653 
	C229.995499,203.026886 230.003708,151.534103 230.025024,99.584229 
	C230.109863,98.792061 230.281311,98.525452 230.783859,98.246658 
	C230.997238,156.471100 230.985794,214.776169 230.893768,273.542053 
	C230.813202,274.002838 230.500000,274.022034 230.343399,274.012360 
z"/>
<path fill="#BE80BE" opacity="1.000000" stroke="none" 
	d="
M275.248596,274.907898 
	C275.016266,216.885101 275.016266,158.828049 275.016266,100.770981 
	C275.316406,100.770744 275.616547,100.770508 275.916687,100.770271 
	C275.916687,158.232788 275.916687,215.695312 275.942169,273.632996 
	C275.947510,274.453796 275.785278,274.708923 275.248596,274.907898 
z"/>
<path fill="#000000" opacity="1.000000" stroke="none" 
	d="
M273.895966,276.037170 
	C273.095795,276.358398 272.295959,276.958282 271.495392,276.959229 
	C258.148773,276.974976 244.802017,276.915802 231.735962,276.442810 
	C245.976395,276.020630 259.936188,276.028900 273.895966,276.037170 
z"/>
<path fill="#AAA9AA" opacity="1.000000" stroke="none" 
	d="
M273.944977,275.827881 
	C259.936188,276.028900 245.976395,276.020630 231.556824,276.049988 
	C231.086578,275.896820 231.076111,275.706024 231.084427,275.229706 
	C245.085464,274.971130 259.067749,274.998077 273.505371,275.107483 
	C273.960693,275.189941 273.993988,275.618561 273.944977,275.827881 
z"/>
<path fill="#000000" opacity="1.000000" stroke="none" 
	d="
M232.078537,96.905983 
	C232.735748,96.604172 233.392914,96.039467 234.050171,96.039368 
	C247.225128,96.037354 260.400085,96.100380 273.284668,96.575180 
	C259.355713,96.968712 245.717117,96.937347 232.078537,96.905983 
z"/>
<path fill="#EDA7AB" opacity="1.000000" stroke="none" 
	d="
M232.051178,97.137375 
	C245.717117,96.937347 259.355713,96.968712 273.454681,96.974693 
	C273.915070,96.949310 273.982880,97.373001 273.975830,97.587364 
	C260.292725,97.864388 246.616638,97.927048 232.480774,97.912247 
	C232.020981,97.834785 232.023834,97.368774 232.051178,97.137375 
z"/>
<path fill="#000000" opacity="1.000000" stroke="none" 
	d="
M116.991501,57.058685 
	C117.700569,60.863773 117.956772,64.621529 118.239731,68.771637 
	C116.537483,68.864120 115.271393,68.849915 114.029526,69.016373 
	C110.674599,69.466042 107.673752,70.413933 106.398552,74.108772 
	C105.289497,77.322212 104.303131,80.645576 102.675140,83.596268 
	C100.324821,87.856140 100.350990,91.357948 104.090630,94.800858 
	C104.684219,95.347351 104.383385,97.454155 103.839226,98.496780 
	C103.177422,99.764862 101.726967,100.593704 100.781403,101.746819 
	C98.464294,104.572495 96.224731,106.223450 92.768684,103.040329 
	C89.925323,100.421524 86.759911,100.528641 83.441536,102.799805 
	C81.613045,104.051285 79.330582,104.799553 77.145126,105.336418 
	C72.441757,106.491829 69.429955,108.723412 69.872742,114.145233 
	C69.966057,115.287796 69.031792,116.514282 68.455185,118.000687 
	C66.763878,118.000687 64.930626,117.831764 63.139149,118.033615 
	C58.503330,118.555923 55.725792,117.684532 55.709850,111.935928 
	C55.704353,109.955078 52.646740,107.653084 50.535786,106.110146 
	C48.792526,104.835945 46.170094,104.808914 44.318886,103.629974 
	C38.025894,99.622269 35.821503,100.015633 27.148888,106.930679 
	C25.195383,104.559677 22.947613,102.143250 21.124599,99.440331 
	C20.531464,98.560913 20.504122,96.294281 21.143679,95.750153 
	C25.741293,91.838547 25.874487,87.518074 23.205019,82.508614 
	C21.707937,79.699226 21.279535,75.960960 19.141518,73.941299 
	C16.316381,71.272552 12.287649,69.877937 8.176239,67.603737 
	C8.176239,65.078629 8.176239,61.440853 8.176239,57.270134 
	C14.524791,55.968018 19.045807,53.727867 22.322201,46.147575 
	C25.569979,38.633480 23.861147,33.913528 20.360191,26.693583 
	C21.596668,25.850580 23.121937,24.440378 24.922485,23.696407 
	C26.453995,23.063599 28.639036,22.492353 29.952080,23.117691 
	C35.250080,25.640875 39.986320,26.591925 44.973778,22.152113 
	C47.131458,20.231352 50.481003,19.702085 53.144676,18.271708 
	C54.239754,17.683657 55.318684,16.528311 55.764893,15.381887 
	C56.671555,13.052440 56.636055,8.826601 57.891308,8.458325 
	C61.237522,7.476586 65.061821,8.124386 68.977615,8.124386 
	C68.977615,9.165531 69.304337,10.198035 68.926216,10.715048 
	C65.738174,15.074142 70.207787,17.376509 72.142807,18.682974 
	C75.932091,21.241392 80.615440,22.662760 85.106415,23.920168 
	C87.555893,24.605986 91.223976,25.061911 92.855095,23.759192 
	C97.375137,20.149195 99.713921,22.887743 102.278419,25.825165 
	C103.421371,27.134314 104.272942,28.697851 105.226357,30.101187 
	C100.123634,34.540497 100.000549,36.046852 103.656960,44.257278 
	C105.738953,48.932362 107.764191,53.632725 109.499725,57.600891 
	C112.710632,57.331963 114.624634,57.171654 116.991501,57.058685 
M73.394135,35.878223 
	C61.955883,31.209339 51.205933,34.022419 42.652267,41.492031 
	C38.128845,45.442177 33.327259,51.265133 33.965328,58.831745 
	C34.188370,61.476643 33.917908,64.159241 34.014858,66.819450 
	C34.266949,73.736565 37.347137,79.829506 41.602386,84.728714 
	C45.909313,89.687416 52.718117,91.415985 59.126530,91.799805 
	C64.549339,92.124596 71.003525,92.302322 75.354561,89.744232 
	C83.368629,85.032562 91.337318,78.787170 91.722488,68.184769 
	C91.942093,62.139534 91.426956,55.537174 89.134598,50.069500 
	C86.454079,43.675980 80.955376,38.817688 73.394135,35.878223 
z"/>
<path fill="#000000" opacity="1.000000" stroke="none" 
	d="
M158.141708,137.986908 
	C159.435959,137.657990 160.728455,137.051788 162.024750,137.043488 
	C173.669174,136.968903 185.316360,137.126282 196.958130,136.935211 
	C201.475143,136.861069 203.070999,138.574127 203.060181,143.064636 
	C202.957626,185.651459 202.970184,228.238678 203.041489,270.825653 
	C203.048996,275.307068 201.211899,277.109009 196.767151,277.045258 
	C183.965454,276.861664 171.160965,276.872162 158.696716,276.401306 
	C171.807907,275.996216 184.579956,275.996216 197.352005,275.996216 
	C197.351227,275.737549 197.350449,275.478851 197.349670,275.220184 
	C184.260910,275.220184 171.172134,275.220184 158.083374,275.220184 
	C157.735428,274.988617 157.387482,274.757050 157.008331,273.768677 
	C156.986160,228.395569 156.995178,183.779282 157.004211,139.162979 
	C157.182861,139.102219 157.361511,139.041458 158.261597,138.978302 
	C172.420563,138.975906 185.858093,138.975906 199.295609,138.975906 
	C199.296188,138.646240 199.296768,138.316574 199.297348,137.986908 
	C185.578812,137.986908 171.860260,137.986908 158.141708,137.986908 
M201.998856,206.500000 
	C201.998856,184.590561 201.998856,162.681107 201.998856,140.771667 
	C201.752106,140.773972 201.505356,140.776291 201.258606,140.778595 
	C201.258606,184.938370 201.258606,229.098129 201.258606,273.257904 
	C201.505356,273.258850 201.752106,273.259796 201.998856,273.260742 
	C201.998856,251.340500 201.998856,229.420258 201.998856,206.500000 
z"/>
<path fill="#AAA9AA" opacity="1.000000" stroke="none" 
	d="
M156.779129,139.248856 
	C156.995178,183.779282 156.986160,228.395569 156.899933,273.463196 
	C156.822723,273.914520 156.389786,273.932434 156.191711,273.441345 
	C155.997513,228.672470 156.001373,184.394699 156.005234,140.116913 
	C156.100433,139.794556 156.283371,139.533829 156.779129,139.248856 
z"/>
<path fill="#000000" opacity="1.000000" stroke="none" 
	d="
M155.590973,140.256317 
	C156.001373,184.394699 155.997513,228.672470 155.977875,273.406616 
	C155.641296,272.727875 155.041260,271.593109 155.040009,270.457672 
	C154.993011,227.763321 155.000397,185.068893 155.009186,142.374496 
	C155.009308,141.714890 155.118439,141.055313 155.590973,140.256317 
z"/>
<path fill="#AAA9AA" opacity="1.000000" stroke="none" 
	d="
M158.094498,138.191238 
	C171.860260,137.986908 185.578812,137.986908 199.297348,137.986908 
	C199.296768,138.316574 199.296188,138.646240 199.295609,138.975906 
	C185.858093,138.975906 172.420563,138.975906 158.532059,138.894775 
	C158.081070,138.813644 158.047287,138.395569 158.094498,138.191238 
z"/>
<path fill="#AAA9AA" opacity="1.000000" stroke="none" 
	d="
M158.046906,275.407898 
	C171.172134,275.220184 184.260910,275.220184 197.349670,275.220184 
	C197.350449,275.478851 197.351227,275.737549 197.352005,275.996216 
	C184.579956,275.996216 171.807907,275.996216 158.580109,275.978516 
	C158.124344,275.960785 158.010437,275.595642 158.046906,275.407898 
z"/>
<path fill="#000000" opacity="1.000000" stroke="none" 
	d="
M612.997070,155.192657 
	C613.944824,149.031372 618.253845,153.012909 620.871765,152.198227 
	C621.521790,151.995941 623.836914,154.228439 623.858398,155.370514 
	C624.083679,167.342606 623.911438,179.321503 624.040771,191.296448 
	C624.092651,196.098709 620.763184,194.841309 618.152466,194.990662 
	C615.365967,195.150085 612.870422,195.287674 612.934204,191.103409 
	C613.114075,179.296143 612.996643,167.484360 612.997070,155.192657 
M622.937622,188.674149 
	C622.937622,179.367859 622.937622,170.061569 622.937622,160.755280 
	C622.776794,160.758972 622.615906,160.762665 622.455078,160.766357 
	C622.455078,170.288361 622.455078,179.810364 622.937622,188.674149 
z"/>
<path fill="#000000" opacity="1.000000" stroke="none" 
	d="
M81.067886,271.970428 
	C81.046196,242.631088 81.024513,213.291748 81.331810,183.320969 
	C82.381157,181.458481 83.101517,180.227432 83.821877,178.996384 
	C85.171127,178.665665 86.518547,178.056732 87.869919,178.047882 
	C99.522812,177.971313 111.177437,178.091431 122.829308,177.957535 
	C127.321404,177.905914 129.084595,179.800766 129.072098,184.243622 
	C128.991013,213.043503 129.047119,241.843750 128.981796,270.643707 
	C128.978516,272.091980 128.266647,273.538574 126.989105,275.003967 
	C112.090515,275.073364 98.087524,275.124725 84.084526,275.176086 
	C83.649048,275.116760 83.213570,275.057434 82.395950,274.638123 
	C81.698494,273.508911 81.383194,272.739655 81.067886,271.970428 
M110.394257,180.000000 
	C113.008652,180.000000 115.623047,180.000000 118.237442,180.000000 
	C118.235741,179.755600 118.234032,179.511185 118.232323,179.266785 
	C109.074974,179.266785 99.917625,179.266785 90.760269,179.266785 
	C90.755295,179.511185 90.750313,179.755600 90.745331,180.000000 
	C96.971237,180.000000 103.197144,180.000000 110.394257,180.000000 
z"/>
<path fill="#000000" opacity="1.000000" stroke="none" 
	d="
M85.464554,277.089966 
	C85.001045,277.163666 84.572060,277.008148 84.345337,276.982605 
	C84.118607,276.957031 84.029221,276.488434 84.544136,276.246765 
	C99.005020,276.031372 112.950996,276.057617 126.896973,276.083923 
	C125.402718,276.388275 123.910103,276.947266 122.413963,276.956848 
	C110.252357,277.034760 98.090111,277.009857 85.464554,277.089966 
z"/>
<path fill="#AAA9AA" opacity="1.000000" stroke="none" 
	d="
M126.949310,275.856110 
	C112.950996,276.057617 99.005020,276.031372 84.604164,276.015900 
	C84.149277,276.026703 84.060730,275.605530 84.072632,275.390808 
	C98.087524,275.124725 112.090515,275.073364 126.558289,275.091675 
	C127.023056,275.161346 127.001656,275.628326 126.949310,275.856110 
z"/>
<path fill="#F5AFC9" opacity="1.000000" stroke="none" 
	d="
M83.448212,178.999359 
	C83.101517,180.227432 82.381157,181.458481 81.355942,182.854019 
	C80.485298,182.242538 79.919502,181.466568 79.353714,180.690598 
	C80.593994,180.127853 81.834267,179.565109 83.448212,178.999359 
z"/>
<path fill="#F5AFC9" opacity="1.000000" stroke="none" 
	d="
M80.835770,272.189362 
	C81.383194,272.739655 81.698494,273.508911 82.065155,274.616943 
	C81.612228,274.106567 81.107941,273.257446 80.835770,272.189362 
z"/>
<path fill="#000000" opacity="1.000000" stroke="none" 
	d="
M8.890188,274.943085 
	C8.593927,273.768158 8.044171,272.594147 8.039767,271.418121 
	C7.981762,255.929138 8.047722,240.439621 7.971391,224.950775 
	C7.948584,220.322708 10.524251,218.144089 14.635295,218.071854 
	C26.123749,217.870010 37.618195,218.033829 49.109993,217.985565 
	C53.728565,217.966171 55.809975,221.154617 55.861755,224.759171 
	C56.096031,241.068085 55.842796,257.384003 55.344215,273.424988 
	C54.923306,259.350586 54.923306,245.548599 54.923306,231.746597 
	C54.623917,231.747925 54.324524,231.749237 54.025135,231.750565 
	C54.025135,246.147079 54.025135,260.543579 54.025135,274.940094 
	C53.839584,274.976990 53.654030,275.013855 52.744911,275.038452 
	C38.050625,274.999237 24.079908,274.972321 10.109193,274.945404 
	C10.109193,274.945404 10.064982,274.909424 10.033588,274.463135 
	C10.002194,258.270996 10.002194,242.525192 10.002194,226.779373 
	C9.631526,226.780960 9.260859,226.782547 8.890190,226.784149 
	C8.890190,242.837128 8.890190,258.890106 8.890188,274.943085 
z"/>
<path fill="#FFAAAA" opacity="1.000000" stroke="none" 
	d="
M9.172482,274.950897 
	C8.890190,258.890106 8.890190,242.837128 8.890190,226.784149 
	C9.260859,226.782547 9.631526,226.780960 10.002194,226.779373 
	C10.002194,242.525192 10.002194,258.270996 10.010780,274.480225 
	C9.831168,274.948669 9.642970,274.953705 9.172482,274.950897 
z"/>
<path fill="#BC81BB" opacity="1.000000" stroke="none" 
	d="
M54.257320,274.905121 
	C54.025135,260.543579 54.025135,246.147079 54.025135,231.750565 
	C54.324524,231.749237 54.623917,231.747925 54.923306,231.746597 
	C54.923306,245.548599 54.923306,259.350586 54.948013,273.627380 
	C54.953865,274.447754 54.792793,274.703735 54.257320,274.905121 
z"/>
<path fill="#000000" opacity="1.000000" stroke="none" 
	d="
M52.871300,275.994293 
	C52.089653,276.329193 51.308392,276.954651 50.526295,276.955688 
	C37.169716,276.973572 23.813038,276.914185 10.737761,276.441956 
	C24.969860,276.006134 38.920578,276.000214 52.871300,275.994293 
z"/>
<path fill="#AAA9AA" opacity="1.000000" stroke="none" 
	d="
M52.922028,275.798462 
	C38.920578,276.000214 24.969860,276.006134 10.559595,276.048767 
	C10.090229,275.895203 10.080406,275.704956 10.089889,275.230042 
	C24.079908,274.972321 38.050625,274.999237 52.471321,275.113770 
	C52.921299,275.201385 52.972755,275.602661 52.922028,275.798462 
z"/>
<path fill="#000000" opacity="1.000000" stroke="none" 
	d="
M352.410736,193.571259 
	C352.052399,174.246902 352.082886,155.268051 351.947021,136.290359 
	C351.923798,133.053299 352.953613,131.731628 356.252319,131.952179 
	C359.358093,132.159836 362.488647,131.996704 365.793579,131.996704 
	C365.793579,152.809128 365.793579,173.195114 365.793579,193.917130 
	C361.310944,193.917130 357.027191,193.917130 352.410736,193.571259 
M352.999695,167.499863 
	C352.999695,174.364365 352.999695,181.228882 352.999695,188.093384 
	C353.237457,188.085495 353.475250,188.077606 353.713013,188.069717 
	C353.713013,171.618774 353.713013,155.167816 353.713013,138.716873 
	C353.474762,138.716049 353.236542,138.715225 352.998291,138.714386 
	C352.998291,147.976242 352.998291,157.238083 352.999695,167.499863 
M363.993439,163.517288 
	C363.993439,170.709274 363.993439,177.901260 363.993439,185.093246 
	C364.237244,185.086212 364.481049,185.079193 364.724854,185.072159 
	C364.724854,173.619659 364.724854,162.167145 364.724854,150.714645 
	C364.481049,150.712250 364.237213,150.709854 363.993408,150.707474 
	C363.993408,154.646469 363.993408,158.585480 363.993439,163.517288 
z"/>
<path fill="#000000" opacity="1.000000" stroke="none" 
	d="
M411.997925,182.967606 
	C411.998688,174.490601 411.998444,166.509018 412.000580,158.527420 
	C412.002319,151.980728 412.003601,151.981354 418.515381,151.999924 
	C419.822906,152.003662 421.130432,152.000488 422.998077,152.000488 
	C422.998077,165.475479 423.025024,178.718231 422.982056,191.960754 
	C422.968658,196.092224 419.736359,194.934982 417.489075,194.942841 
	C415.233734,194.950729 412.073364,196.072220 412.007782,191.943314 
	C411.962921,189.117203 411.998413,186.289825 411.997925,182.967606 
M421.999146,167.504486 
	C421.999146,162.728058 421.999146,157.951645 421.999146,153.234528 
	C419.171356,153.234528 416.902557,153.234528 414.633759,153.234528 
	C414.626373,153.403610 414.618988,153.572693 414.611633,153.741776 
	C416.660309,153.913895 418.708984,154.086014 421.112793,154.287964 
	C421.112793,167.187958 421.112793,179.770615 421.112793,192.353287 
	C421.408234,192.352905 421.703705,192.352539 421.999146,192.352173 
	C421.999146,184.402588 421.999146,176.453003 421.999146,167.504486 
z"/>
<path fill="#FCADC9" opacity="1.000000" stroke="none" 
	d="
M73.791412,35.950012 
	C80.955376,38.817688 86.454079,43.675980 89.134598,50.069500 
	C91.426956,55.537174 91.942093,62.139534 91.722488,68.184769 
	C91.337318,78.787170 83.368629,85.032562 75.354561,89.744232 
	C71.003525,92.302322 64.549339,92.124596 59.126530,91.799805 
	C52.718117,91.415985 45.909313,89.687416 41.602386,84.728714 
	C37.347137,79.829506 34.266949,73.736565 34.014858,66.819450 
	C33.917908,64.159241 34.188370,61.476643 33.965328,58.831745 
	C33.327259,51.265133 38.128845,45.442177 42.652267,41.492031 
	C51.205933,34.022419 61.955883,31.209339 73.791412,35.950012 
M84.994759,66.079048 
	C84.995621,65.080910 84.958992,64.081116 85.003090,63.084885 
	C85.491310,52.052704 75.277817,40.659531 63.157612,40.789711 
	C56.245598,40.863953 51.975140,44.354187 47.108047,48.148144 
	C43.488892,50.969318 41.916084,54.093468 41.992802,58.418812 
	C42.034100,60.747116 42.225136,63.102348 41.963272,65.401543 
	C40.494293,78.299309 56.468189,87.929276 68.391113,84.450180 
	C77.693947,81.735626 82.279869,75.462242 84.994759,66.079048 
z"/>
<path fill="#808080" opacity="1.000000" stroke="none" 
	d="
M201.998856,207.000000 
	C201.998856,229.420258 201.998856,251.340500 201.998856,273.260742 
	C201.752106,273.259796 201.505356,273.258850 201.258606,273.257904 
	C201.258606,229.098129 201.258606,184.938370 201.258606,140.778595 
	C201.505356,140.776291 201.752106,140.773972 201.998856,140.771667 
	C201.998856,162.681107 201.998856,184.590561 201.998856,207.000000 
z"/>
<path fill="#AFAAAA" opacity="1.000000" stroke="none" 
	d="
M622.696350,189.003265 
	C622.455078,179.810364 622.455078,170.288361 622.455078,160.766357 
	C622.615906,160.762665 622.776794,160.758972 622.937622,160.755280 
	C622.937622,170.061569 622.937622,179.367859 622.696350,189.003265 
z"/>
<path fill="#808080" opacity="1.000000" stroke="none" 
	d="
M109.908653,180.000000 
	C103.197144,180.000000 96.971237,180.000000 90.745331,180.000000 
	C90.750313,179.755600 90.755295,179.511185 90.760269,179.266785 
	C99.917625,179.266785 109.074974,179.266785 118.232323,179.266785 
	C118.234032,179.511185 118.235741,179.755600 118.237442,180.000000 
	C115.623047,180.000000 113.008652,180.000000 109.908653,180.000000 
z"/>
<path fill="#FF83BB" opacity="1.000000" stroke="none" 
	d="
M352.998993,166.999908 
	C352.998291,157.238083 352.998291,147.976242 352.998291,138.714386 
	C353.236542,138.715225 353.474762,138.716049 353.713013,138.716873 
	C353.713013,155.167816 353.713013,171.618774 353.713013,188.069717 
	C353.475250,188.077606 353.237457,188.085495 352.999695,188.093384 
	C352.999695,181.228882 352.999695,174.364365 352.998993,166.999908 
z"/>
<path fill="#ACA5A6" opacity="1.000000" stroke="none" 
	d="
M363.993408,163.020874 
	C363.993408,158.585480 363.993408,154.646469 363.993408,150.707474 
	C364.237213,150.709854 364.481049,150.712250 364.724854,150.714645 
	C364.724854,162.167145 364.724854,173.619659 364.724854,185.072159 
	C364.481049,185.079193 364.237244,185.086212 363.993439,185.093246 
	C363.993439,177.901260 363.993439,170.709274 363.993408,163.020874 
z"/>
<path fill="#ACA8AB" opacity="1.000000" stroke="none" 
	d="
M421.999146,168.003952 
	C421.999146,176.453003 421.999146,184.402588 421.999146,192.352173 
	C421.703705,192.352539 421.408234,192.352905 421.112793,192.353287 
	C421.112793,179.770615 421.112793,167.187958 421.112793,154.287964 
	C418.708984,154.086014 416.660309,153.913895 414.611633,153.741776 
	C414.618988,153.572693 414.626373,153.403610 414.633759,153.234528 
	C416.902557,153.234528 419.171356,153.234528 421.999146,153.234528 
	C421.999146,157.951645 421.999146,162.728058 421.999146,168.003952 
z"/>
<path fill="#000000" opacity="1.000000" stroke="none" 
	d="
M84.983559,66.513725 
	C82.279869,75.462242 77.693947,81.735626 68.391113,84.450180 
	C56.468189,87.929276 40.494293,78.299309 41.963272,65.401543 
	C42.225136,63.102348 42.034100,60.747116 41.992802,58.418812 
	C41.916084,54.093468 43.488892,50.969318 47.108047,48.148144 
	C51.975140,44.354187 56.245598,40.863953 63.157612,40.789711 
	C75.277817,40.659531 85.491310,52.052704 85.003090,63.084885 
	C84.958992,64.081116 84.995621,65.080910 84.983559,66.513725 
z"/>
</svg>